<svg width="1920" height="1276" viewBox="0 0 1920 1276" fill="none" xmlns="http://www.w3.org/2000/svg">
<path d="M1286.47 414.085C1456.85 441.512 1534.35 333.501 1692.3 401.707C1700.94 405.441 1894.96 492.736 1901.37 667.748C1906.35 803.841 1795.54 929.27 1680 958.528C1514.11 1000.56 1438.51 818.993 1280.32 847.161C1059.37 886.516 1029.14 1272.39 856.039 1274.08C792.612 1274.7 776.181 1223.09 585.48 1051.34C392.368 877.436 366.22 891.644 290.332 810.058C133.186 641.09 -133.951 432.651 124.306 98.5637C251.003 -65.3345 541.068 -100.055 745.355 -18.9921C1027.02 92.7818 1026.95 372.333 1286.47 414.099L1286.47 414.085Z" stroke="url(#paint0_linear_169_1020)" stroke-width="2" stroke-miterlimit="10"/>
<path d="M1280.05 417.862C1447.09 444.753 1523.06 338.848 1677.93 405.732C1686.39 409.393 1876.61 494.988 1882.89 666.557C1887.77 799.991 1779.12 922.951 1665.87 951.643C1503.24 992.843 1429.1 814.853 1274.02 842.455C1057.4 881.025 1027.77 1259.33 858.062 1260.99C795.877 1261.6 779.778 1211 592.817 1042.63C403.502 872.134 377.86 886.066 303.459 806.064C149.388 640.422 -112.508 436.065 140.696 108.516C264.909 -52.1721 549.285 -86.2098 749.573 -6.73034C1025.71 102.85 1025.65 376.91 1280.08 417.862L1280.05 417.862Z" stroke="url(#paint1_linear_169_1020)" stroke-width="2" stroke-miterlimit="10"/>
<path d="M1273.76 421.552C1437.52 447.904 1512 344.092 1663.84 409.654C1672.14 413.242 1858.62 497.152 1864.79 665.365C1869.58 796.185 1763.06 916.733 1652.02 944.858C1492.58 985.259 1419.9 810.741 1267.87 837.82C1055.49 875.635 1026.44 1246.52 860.056 1248.15C799.083 1248.74 783.302 1199.13 600.008 1034.07C414.403 866.919 389.266 880.574 316.324 802.155C165.285 639.753 -91.4852 439.406 156.752 118.277C278.525 -39.2578 557.328 -72.6273 753.689 5.28324C1024.41 112.728 1024.35 381.412 1273.79 421.552L1273.76 421.552Z" stroke="url(#paint2_linear_169_1020)" stroke-width="2" stroke-miterlimit="10"/>
<path d="M1267.59 425.184C1428.14 451.029 1501.17 349.25 1650.02 413.519C1658.16 417.034 1840.99 499.303 1847.03 664.218C1851.72 792.466 1747.3 910.647 1638.44 938.235C1482.11 977.836 1410.86 806.747 1261.8 833.288C1053.6 870.362 1025.11 1233.98 861.989 1235.57C802.215 1236.15 786.737 1187.51 607.038 1025.69C425.072 861.82 400.426 875.2 328.913 798.321C180.834 639.1 -70.8977 442.69 172.46 127.852C291.85 -26.5894 565.181 -59.3196 757.687 17.0801C1023.09 122.418 1023.03 385.829 1267.59 425.184Z" stroke="url(#paint3_linear_169_1020)" stroke-width="2" stroke-miterlimit="10"/>
<path d="M1261.54 428.744C1418.95 454.079 1490.55 354.291 1636.47 417.311C1644.46 420.754 1823.69 501.41 1829.61 663.085C1834.22 788.82 1731.84 904.691 1625.11 931.726C1471.85 970.558 1402 802.825 1255.87 828.843C1051.74 865.191 1023.83 1221.68 863.894 1223.23C805.289 1223.8 790.129 1176.12 613.939 1017.47C435.539 856.808 411.37 869.941 341.257 794.544C196.08 638.447 -50.7135 445.886 187.879 137.222C304.931 -14.1972 572.905 -46.2737 761.628 28.6151C1021.83 131.876 1021.78 390.13 1261.54 428.715L1261.54 428.744Z" stroke="url(#paint4_linear_169_1020)" stroke-width="2" stroke-miterlimit="10"/>
<path d="M1255.61 432.23C1409.92 457.072 1480.12 359.244 1623.18 421.029C1631 424.414 1806.73 503.487 1812.53 661.995C1817.05 785.26 1716.68 898.865 1612.04 925.377C1461.8 963.439 1393.3 799.003 1250.03 824.513C1049.92 860.149 1022.54 1209.65 865.743 1211.17C808.294 1211.73 793.422 1164.99 620.697 1009.45C445.791 851.941 422.113 864.812 353.372 790.897C211.039 637.865 -30.9177 449.067 202.997 146.475C317.753 -1.98013 580.472 -33.4319 765.499 40.0042C1020.61 141.246 1020.55 394.429 1255.61 432.259L1255.61 432.23Z" stroke="url(#paint5_linear_169_1020)" stroke-width="2" stroke-miterlimit="10"/>
<path d="M1249.79 435.645C1401.07 459.993 1469.9 364.083 1610.15 424.662C1617.82 427.975 1790.11 505.493 1795.8 660.893C1800.22 781.746 1701.82 893.113 1599.24 919.103C1451.94 956.424 1384.79 795.198 1244.33 820.215C1048.13 855.153 1021.3 1197.8 867.579 1199.29C811.255 1199.84 796.672 1154.01 627.325 1001.52C455.856 847.09 432.625 859.715 365.242 787.252C225.696 637.213 -11.511 452.134 217.812 155.455C330.316 9.9192 587.895 -20.9224 769.283 51.0754C1019.38 150.327 1019.33 398.557 1249.77 435.645L1249.79 435.645Z" stroke="url(#paint6_linear_169_1020)" stroke-width="2" stroke-miterlimit="10"/>
<path d="M1244.08 438.999C1392.41 462.867 1459.88 368.846 1597.39 428.22C1604.91 431.474 1773.81 507.467 1779.4 659.83C1783.73 778.316 1687.27 887.504 1586.69 912.985C1442.28 949.579 1376.45 791.521 1238.74 816.029C1046.4 850.284 1020.09 1186.2 869.382 1187.67C814.155 1188.21 799.862 1143.27 633.85 993.772C465.745 842.381 442.976 854.744 376.906 783.72C240.104 636.63 7.54609 455.168 232.365 164.314C342.659 21.6262 595.184 -8.60529 773.021 61.9834C1018.23 159.288 1018.17 402.651 1244.1 439.013L1244.08 438.999Z" stroke="url(#paint7_linear_169_1020)" stroke-width="2" stroke-miterlimit="10"/>
<path d="M1238.5 442.282C1383.91 465.686 1450.06 373.495 1584.87 431.721C1592.25 434.902 1757.84 509.413 1763.3 658.784C1767.56 774.945 1672.97 881.983 1574.38 906.97C1432.79 942.839 1368.25 787.889 1233.24 811.918C1044.66 845.49 1018.86 1174.84 871.115 1176.28C816.972 1176.8 802.967 1132.76 640.204 986.188C475.391 837.762 453.069 849.892 388.299 780.248C254.182 636.034 26.1724 458.131 246.602 172.987C354.73 33.1029 602.303 3.46702 776.66 72.6611C1017.06 168.063 1017 406.646 1238.5 442.297L1238.5 442.282Z" stroke="url(#paint8_linear_169_1020)" stroke-width="2" stroke-miterlimit="10"/>
<path d="M1233.02 445.509C1375.59 468.448 1440.44 378.073 1572.61 435.151C1579.85 438.274 1742.19 511.318 1747.55 657.754C1751.72 771.635 1658.98 876.581 1562.32 901.074C1423.51 936.245 1360.24 784.317 1227.88 807.895C1043 840.814 1017.72 1163.7 872.86 1165.11C819.785 1165.63 806.039 1122.44 646.467 978.737C484.888 833.231 463 845.114 399.5 776.835C268.011 635.455 44.4773 461.038 260.575 181.488C366.596 44.3489 609.303 15.2941 780.238 83.1226C1015.91 176.65 1015.86 410.556 1233.02 445.509Z" stroke="url(#paint9_linear_169_1020)" stroke-width="2" stroke-miterlimit="10"/>
<path d="M1227.65 448.659C1367.42 471.147 1431 382.545 1560.59 438.504C1567.67 441.569 1726.84 513.19 1732.1 656.749C1736.18 768.393 1645.28 871.29 1550.51 895.29C1414.43 929.763 1352.39 780.828 1222.63 803.927C1041.37 836.207 1016.58 1152.74 874.564 1154.14C822.529 1154.65 809.058 1112.3 652.619 971.428C494.202 828.768 472.747 840.419 410.489 773.492C281.57 634.886 62.4251 463.883 274.293 189.809C378.234 55.3581 616.191 26.8698 783.777 93.3763C1014.83 185.073 1014.77 414.389 1227.68 448.659L1227.65 448.659Z" stroke="url(#paint10_linear_169_1020)" stroke-width="2" stroke-miterlimit="10"/>
<path d="M1222.38 451.754C1359.4 473.806 1421.75 386.932 1548.78 441.802C1555.72 444.81 1711.77 515.021 1716.92 655.762C1720.94 765.226 1631.81 866.09 1538.89 889.624C1405.46 923.43 1344.66 777.4 1217.43 800.063C1039.72 831.704 1015.43 1142.05 876.197 1143.4C825.186 1143.9 811.975 1102.39 658.597 964.266C503.285 824.396 482.248 835.829 421.217 770.209C294.825 634.32 79.9828 466.673 287.692 197.974C389.583 66.1526 622.877 38.2309 787.185 103.43C1013.71 193.326 1013.66 418.152 1222.38 451.739L1222.38 451.754Z" stroke="url(#paint11_linear_169_1020)" stroke-width="2" stroke-miterlimit="10"/>
<path d="M1217.22 454.79C1351.55 476.407 1412.67 391.247 1537.21 445.028C1544.03 447.962 1697 516.808 1702.05 654.804C1705.98 762.118 1618.6 861.006 1527.51 884.09C1396.71 917.227 1337.08 774.074 1212.37 796.286C1038.15 827.302 1014.31 1131.56 877.815 1132.9C827.801 1133.39 814.85 1092.69 664.49 957.279C512.223 820.155 491.606 831.355 431.759 767.028C307.85 633.797 97.2093 469.448 300.847 206.008C400.745 76.7725 629.462 49.3884 790.536 113.324C1012.63 201.461 1012.57 421.871 1217.2 454.805L1217.22 454.79Z" stroke="url(#paint12_linear_169_1020)" stroke-width="2" stroke-miterlimit="10"/>
<path d="M1212.16 457.768C1343.87 478.964 1403.79 395.475 1525.89 448.209C1532.56 451.086 1682.55 518.58 1687.5 653.859C1691.35 759.067 1605.68 856.023 1516.38 878.642C1388.13 911.125 1329.69 770.776 1207.41 792.553C1036.61 822.958 1013.24 1121.26 879.43 1122.56C830.397 1123.04 817.706 1083.14 670.277 950.378C520.999 815.942 500.786 826.924 442.108 763.846C320.625 633.23 114.128 472.107 313.767 213.839C411.702 87.145 635.943 60.2984 793.854 122.97C1011.58 209.379 1011.54 425.474 1212.15 457.754L1212.16 457.768Z" stroke="url(#paint13_linear_169_1020)" stroke-width="2" stroke-miterlimit="10"/>
<path d="M1207.19 460.674C1336.32 481.462 1395.05 399.6 1514.77 451.289C1521.31 454.122 1668.37 520.28 1673.22 652.915C1677 756.059 1593.01 851.112 1505.45 873.296C1379.72 905.154 1322.41 767.551 1202.53 788.891C1035.07 818.702 1012.18 1111.15 880.975 1112.43C832.895 1112.9 820.464 1073.79 675.922 943.623C529.576 811.83 509.752 822.595 452.23 760.752C333.128 632.707 130.675 474.721 326.4 221.523C422.415 97.3138 642.252 70.9902 797.074 132.427C1010.53 217.136 1010.49 429.004 1207.16 460.659L1207.19 460.674Z" stroke="url(#paint14_linear_169_1020)" stroke-width="2" stroke-miterlimit="10"/>
<path d="M1202.33 463.537C1328.92 483.904 1386.5 403.655 1503.87 454.341C1510.28 457.116 1654.45 521.981 1659.21 652.016C1662.91 753.141 1580.58 846.334 1494.73 868.082C1371.47 899.316 1315.29 764.414 1197.77 785.334C1033.6 814.563 1011.14 1101.28 882.521 1102.53C835.394 1102.99 823.194 1064.64 681.496 937.029C538.009 807.822 518.589 818.369 462.193 757.746C345.431 632.2 146.948 477.323 338.833 229.093C432.97 107.31 648.491 81.5095 800.28 141.755C1009.55 224.808 1009.51 432.506 1202.33 463.551L1202.33 463.537Z" stroke="url(#paint15_linear_169_1020)" stroke-width="2" stroke-miterlimit="10"/>
<path d="M1197.56 466.339C1321.67 486.314 1378.13 407.634 1493.19 457.332C1499.48 460.049 1640.82 523.65 1645.48 651.128C1649.11 750.263 1568.38 841.626 1484.24 862.952C1363.39 893.561 1308.32 761.318 1193.09 781.831C1032.14 810.493 1010.12 1091.57 884.021 1092.8C837.818 1093.25 825.849 1055.66 686.938 930.562C546.266 803.883 527.222 814.241 471.938 754.795C357.471 631.719 162.871 479.879 351.002 236.501C443.292 117.115 654.596 91.8078 803.412 150.876C1008.58 232.302 1008.54 435.933 1197.58 466.354L1197.56 466.339Z" stroke="url(#paint16_linear_169_1020)" stroke-width="2" stroke-miterlimit="10"/>
<path d="M1192.88 469.099C1314.56 488.682 1369.91 411.541 1482.72 460.266C1488.88 462.925 1627.45 525.276 1632.03 650.256C1635.58 747.459 1556.44 837.02 1473.94 857.925C1355.47 887.939 1301.48 758.282 1188.5 778.388C1030.7 806.484 1009.11 1082.05 885.494 1083.26C840.186 1083.7 828.462 1046.84 692.266 924.199C554.351 800.004 535.683 810.159 481.481 751.875C369.253 631.21 178.479 482.348 362.914 243.75C453.399 126.702 660.56 101.904 806.444 159.796C1007.6 239.624 1007.54 439.26 1192.88 469.084L1192.88 469.099Z" stroke="url(#paint17_linear_169_1020)" stroke-width="2" stroke-miterlimit="10"/>
<path d="M1188.3 471.788C1307.58 490.993 1361.84 415.363 1472.44 463.13C1478.49 465.745 1614.34 526.876 1618.82 649.4C1622.31 744.685 1544.72 832.504 1463.82 853.002C1347.66 882.434 1294.73 755.305 1183.98 775.033C1029.27 802.577 1008.12 1072.76 886.91 1073.93C842.498 1074.37 831.005 1038.23 697.48 917.983C562.28 796.229 543.957 806.165 490.825 749.043C380.79 630.747 193.757 484.804 374.582 250.884C463.291 136.132 666.38 111.813 809.42 168.572C1006.62 246.831 1006.57 442.559 1188.28 471.802L1188.3 471.788Z" stroke="url(#paint18_linear_169_1020)" stroke-width="2" stroke-miterlimit="10"/>
<path d="M1183.8 474.433C1300.75 493.26 1353.96 419.112 1462.37 465.934C1468.31 468.491 1601.49 528.417 1605.88 648.558C1609.3 741.984 1533.22 828.074 1453.93 848.165C1340.05 877.016 1288.15 752.386 1179.57 771.722C1027.9 798.728 1007.16 1063.61 888.337 1064.75C844.791 1065.18 833.53 1029.76 702.618 911.868C570.06 792.496 552.113 802.244 500.019 746.241C392.151 630.254 208.785 487.173 386.058 257.843C473.02 145.343 672.138 121.504 812.363 177.158C1005.71 253.892 1005.66 445.77 1183.8 474.447L1183.8 474.433Z" stroke="url(#paint19_linear_169_1020)" stroke-width="2" stroke-miterlimit="10"/>
<path d="M1179.4 477.018C1294.05 495.468 1346.22 422.787 1452.51 468.694C1458.33 471.207 1588.9 529.956 1593.22 647.729C1596.57 739.325 1521.99 823.729 1444.24 843.414C1332.6 871.699 1281.72 749.508 1175.27 768.467C1026.57 794.936 1006.24 1054.63 889.739 1055.76C847.045 1056.18 835.999 1021.45 707.657 905.867C577.698 788.834 560.098 798.393 509.03 743.48C403.269 629.773 223.498 489.497 397.307 264.656C482.565 154.349 677.785 130.989 815.252 185.54C1004.8 260.763 1004.75 448.893 1179.4 476.989L1179.4 477.018Z" stroke="url(#paint20_linear_169_1020)" stroke-width="2" stroke-miterlimit="10"/>
<path d="M1175.07 479.559C1287.47 497.646 1338.61 426.389 1442.83 471.395C1448.53 473.85 1576.54 531.451 1580.77 646.915C1584.06 736.709 1510.95 819.457 1434.73 838.764C1325.27 866.497 1275.39 746.704 1171.03 765.284C1025.24 791.245 1005.3 1045.84 891.098 1046.94C849.241 1047.35 838.413 1013.3 712.597 899.982C585.194 785.245 567.94 794.615 517.868 740.791C414.187 629.308 237.939 491.791 408.325 271.367C491.923 163.225 683.302 140.315 818.084 193.805C1003.92 267.561 1003.88 451.986 1175.1 479.545L1175.07 479.559Z" stroke="url(#paint21_linear_169_1020)" stroke-width="2" stroke-miterlimit="10"/>
<path d="M1170.84 482.044C1281.05 499.782 1331.17 429.919 1433.34 474.039C1438.93 476.451 1564.43 532.919 1568.57 646.131C1571.79 734.167 1500.12 815.288 1425.38 834.217C1318.08 861.398 1269.18 743.959 1166.85 762.176C1023.93 787.628 1004.38 1037.22 892.41 1038.31C851.376 1038.71 840.764 1005.32 717.403 894.245C592.498 781.759 575.576 790.955 526.486 738.162C424.84 628.872 252.043 494.043 419.094 277.934C501.045 171.913 688.671 149.453 820.81 201.897C1002.99 274.2 1002.95 455.023 1170.82 482.029L1170.84 482.044Z" stroke="url(#paint22_linear_169_1020)" stroke-width="2" stroke-miterlimit="10"/>
<path d="M1166.68 484.484C1274.72 501.874 1323.87 433.377 1424.04 476.639C1429.51 479.007 1552.56 534.371 1556.63 645.346C1559.79 731.654 1489.51 811.191 1416.25 829.757C1311.05 856.415 1263.1 741.271 1162.78 759.139C1022.66 784.083 1003.5 1028.8 893.724 1029.86C853.499 1030.25 843.089 997.52 722.154 888.608C599.689 778.33 583.113 787.337 534.976 735.59C435.323 628.436 265.919 496.251 429.692 284.384C510.041 180.44 693.985 158.431 823.54 209.843C1002.16 280.723 1002.11 458.001 1166.69 484.484L1166.68 484.484Z" stroke="url(#paint23_linear_169_1020)" stroke-width="2" stroke-miterlimit="10"/>
<path d="M1162.61 486.881C1268.53 503.936 1316.72 436.776 1414.92 479.181C1420.29 481.506 1540.92 535.78 1544.89 644.59C1548 729.198 1479.1 807.181 1407.27 825.384C1304.13 851.519 1257.12 738.641 1158.77 756.146C1021.4 780.611 1002.61 1020.52 894.982 1021.56C855.551 1021.94 845.343 989.863 726.776 883.087C606.722 774.974 590.464 783.806 543.28 733.077C445.576 628.029 279.493 498.43 440.061 290.717C518.836 188.822 699.17 167.234 826.184 217.63C1001.29 287.129 1001.26 460.92 1162.61 486.895L1162.61 486.881Z" stroke="url(#paint24_linear_169_1020)" stroke-width="2" stroke-miterlimit="10"/>
<path d="M1158.62 489.236C1262.48 505.957 1309.72 440.118 1405.99 481.696C1411.26 483.977 1529.53 537.191 1533.43 643.851C1536.46 726.802 1468.91 803.26 1398.5 821.1C1297.39 846.712 1251.3 736.056 1154.88 753.213C1020.2 777.198 1001.78 1012.4 896.263 1013.43C857.597 1013.81 847.592 982.34 731.349 877.67C613.648 771.678 597.708 780.336 551.448 730.594C455.664 627.609 292.829 500.552 450.25 296.907C527.48 197.002 704.277 175.836 828.793 225.258C1000.46 293.391 1000.44 463.784 1158.62 489.236Z" stroke="url(#paint25_linear_169_1020)" stroke-width="2" stroke-miterlimit="10"/>
<path d="M1154.71 491.529C1256.53 507.916 1302.84 443.371 1397.23 484.134C1402.39 486.357 1518.34 538.54 1522.17 643.108C1525.14 724.432 1458.93 799.379 1389.88 816.87C1290.75 841.988 1245.57 733.483 1151.05 750.32C1019.01 773.826 1000.94 1004.42 897.509 1005.42C859.608 1005.78 849.79 974.943 735.829 872.321C620.438 768.407 604.801 776.891 559.451 728.137C465.544 627.171 305.914 502.613 460.231 302.963C535.945 205.019 709.277 184.274 831.353 232.723C999.66 299.52 999.631 466.571 1154.71 491.529Z" stroke="url(#paint26_linear_169_1020)" stroke-width="2" stroke-miterlimit="10"/>
<path d="M1150.87 493.782C1250.68 509.849 1296.09 446.568 1388.64 486.533C1393.69 488.712 1507.37 539.863 1511.12 642.398C1514.04 722.138 1449.11 795.618 1381.44 812.76C1284.25 837.384 1239.95 731.015 1147.28 747.518C1017.82 770.573 1000.12 996.634 898.706 997.622C861.542 997.985 851.926 967.753 740.202 867.137C627.064 765.256 611.745 773.58 567.289 725.77C475.231 626.78 318.72 504.663 470.019 308.935C544.246 212.909 714.184 192.571 833.863 240.061C998.879 305.55 998.835 469.318 1150.88 493.797L1150.87 493.782Z" stroke="url(#paint27_linear_169_1020)" stroke-width="2" stroke-miterlimit="10"/>
<path d="M1147.12 495.99C1244.98 511.738 1289.49 449.706 1380.22 488.886C1385.19 491.022 1496.63 541.17 1500.31 641.685C1503.17 719.857 1439.52 791.899 1373.16 808.707C1277.89 832.851 1234.46 728.559 1143.6 744.743C1016.68 767.333 999.328 988.978 899.906 989.936C863.478 990.285 854.035 960.649 744.506 862.008C633.591 762.117 618.576 770.282 574.972 723.416C484.718 626.373 331.282 506.638 479.607 314.746C552.376 220.608 718.994 200.662 836.319 247.222C998.101 311.419 998.057 471.991 1147.12 495.975L1147.12 495.99Z" stroke="url(#paint28_linear_169_1020)" stroke-width="2" stroke-miterlimit="10"/>
<path d="M1143.42 498.168C1239.36 513.611 1283.01 452.784 1371.95 491.195C1376.81 493.301 1486.07 542.462 1489.68 641.002C1492.48 717.634 1430.08 788.266 1365.03 804.755C1271.62 828.42 1229.04 726.176 1139.97 742.04C1015.55 764.194 998.531 981.48 901.044 982.439C865.324 982.788 856.083 953.719 748.691 857.024C639.956 759.095 625.229 767.099 582.492 721.149C494 626.009 343.567 508.628 489.004 320.498C560.344 228.205 723.684 208.651 838.728 254.296C997.333 317.244 997.304 474.648 1143.43 498.168L1143.42 498.168Z" stroke="url(#paint29_linear_169_1020)" stroke-width="2" stroke-miterlimit="10"/>
<path d="M1139.81 500.289C1233.88 515.427 1276.66 455.792 1363.86 493.461C1368.63 495.524 1475.75 543.726 1479.28 640.334C1482.04 715.469 1420.85 784.707 1357.08 800.876C1265.5 824.076 1223.75 723.852 1136.42 739.396C1014.44 761.114 997.752 974.144 902.185 975.074C867.172 975.408 858.105 946.92 752.821 852.114C646.208 756.103 631.77 763.947 589.87 718.898C503.111 625.617 355.638 510.546 498.216 326.106C568.155 235.614 728.305 216.453 841.082 261.212C996.582 322.924 996.539 477.249 1139.81 500.304L1139.81 500.289Z" stroke="url(#paint30_linear_169_1020)" stroke-width="2" stroke-miterlimit="10"/>
<path d="M1136.26 502.368C1228.48 517.215 1270.42 458.757 1355.91 495.671C1360.59 497.69 1465.6 544.948 1469.06 639.667C1471.76 713.335 1411.79 781.207 1349.25 797.057C1259.46 819.806 1218.54 721.543 1132.92 736.782C1013.33 758.079 996.974 966.926 903.284 967.841C868.949 968.175 860.07 940.239 756.85 847.292C652.332 753.169 638.182 760.854 597.105 716.691C512.049 625.241 367.464 512.421 507.241 331.598C575.809 242.894 732.811 224.095 843.379 267.968C995.819 328.475 995.79 479.763 1136.26 502.368Z" stroke="url(#paint31_linear_169_1020)" stroke-width="2" stroke-miterlimit="10"/>
<path d="M1132.8 504.416C1223.21 518.972 1264.33 461.647 1348.14 497.849C1352.72 499.825 1455.68 546.153 1459.09 639.012C1461.73 711.228 1402.92 777.778 1341.62 793.308C1253.59 815.607 1213.46 719.262 1129.53 734.21C1012.29 755.086 996.252 959.85 904.396 960.736C870.74 961.07 862.019 933.672 760.836 842.541C658.367 750.263 644.492 757.803 604.224 714.511C520.842 624.848 379.087 514.251 516.121 336.958C583.346 249.982 737.273 231.562 845.675 274.577C995.126 333.893 995.097 482.218 1132.81 504.387L1132.8 504.416Z" stroke="url(#paint32_linear_169_1020)" stroke-width="2" stroke-miterlimit="10"/>
<path d="M1129.39 506.422C1218.02 520.688 1258.33 464.495 1340.52 499.986C1345.01 501.933 1445.95 547.345 1449.28 638.389C1451.88 709.195 1394.23 774.438 1334.12 789.662C1247.82 811.526 1208.48 717.069 1126.19 731.727C1011.25 752.196 995.528 952.936 905.477 953.808C872.471 954.127 863.938 927.281 764.732 837.937C664.271 747.475 650.67 754.855 611.181 712.406C529.432 624.5 390.463 516.068 524.811 342.262C590.722 257 741.631 238.928 847.897 281.101C994.417 339.255 994.388 484.674 1129.4 506.407L1129.39 506.422Z" stroke="url(#paint33_linear_169_1020)" stroke-width="2" stroke-miterlimit="10"/>
<path d="M1126.05 508.383C1212.94 522.373 1252.47 467.285 1333.04 502.078C1337.44 503.981 1436.4 548.507 1439.67 637.764C1442.21 707.176 1385.68 771.14 1326.76 786.074C1242.15 807.517 1203.58 714.904 1122.9 729.272C1010.21 749.334 994.793 946.137 906.503 947.009C874.146 947.328 865.772 921.005 768.516 833.404C670.032 744.715 656.691 751.949 617.982 710.343C537.835 624.166 401.581 517.854 533.302 347.462C597.913 263.872 745.862 246.163 850.049 287.508C993.696 344.514 993.667 487.086 1126.04 508.397L1126.05 508.383Z" stroke="url(#paint34_linear_169_1020)" stroke-width="2" stroke-miterlimit="10"/>
<path d="M1122.77 510.299C1207.96 524.013 1246.73 470 1325.7 504.111C1330.02 505.97 1427.05 549.625 1430.24 637.138C1432.73 705.185 1377.32 767.9 1319.55 782.543C1236.61 803.564 1198.79 712.768 1119.7 726.86C1009.22 746.53 994.1 939.483 907.542 940.325C875.821 940.63 867.62 914.83 772.255 828.958C675.692 741.997 662.625 749.101 624.667 708.308C546.094 623.817 412.511 519.597 541.647 352.532C605.002 270.583 750.035 253.208 852.186 293.754C993.017 349.641 992.988 489.424 1122.76 510.314L1122.77 510.299Z" stroke="url(#paint35_linear_169_1020)" stroke-width="2" stroke-miterlimit="10"/>
<path d="M1119.55 512.188C1203.08 525.626 1241.06 472.688 1318.5 506.116C1322.73 507.946 1417.85 550.744 1420.98 636.528C1423.42 703.253 1369.1 764.733 1312.46 779.086C1231.14 799.686 1194.07 710.691 1116.52 724.492C1008.2 743.784 993.389 932.946 908.521 933.774C877.421 934.079 869.379 908.772 775.891 824.586C681.219 739.339 668.398 746.297 631.205 706.303C554.162 623.468 423.207 521.297 549.816 357.515C611.93 277.164 754.118 260.137 854.277 299.884C992.35 354.682 992.321 491.719 1119.54 512.188L1119.55 512.188Z" stroke="url(#paint36_linear_169_1020)" stroke-width="2" stroke-miterlimit="10"/>
<path d="M1116.41 514.032C1198.29 527.208 1235.54 475.301 1311.45 508.09C1315.6 509.877 1408.85 551.846 1411.93 635.946C1414.33 701.363 1361.06 761.637 1305.53 775.699C1225.81 795.892 1189.46 708.641 1113.45 722.18C1007.25 741.095 992.729 926.537 909.535 927.351C879.056 927.642 871.158 902.843 779.504 820.298C686.695 736.722 674.119 743.55 637.648 704.326C562.121 623.118 433.736 522.937 557.847 362.365C618.733 283.598 758.15 266.906 856.33 305.868C991.703 359.591 991.66 493.94 1116.39 514.017L1116.41 514.032Z" stroke="url(#paint37_linear_169_1020)" stroke-width="2" stroke-miterlimit="10"/>
<path d="M1113.33 515.85C1193.61 528.765 1230.12 477.875 1304.55 510.024C1308.62 511.782 1400.05 552.924 1403.06 635.381C1405.42 699.505 1353.19 758.603 1298.76 772.389C1220.59 792.19 1184.97 706.638 1110.43 719.916C1006.31 738.453 992.078 920.278 910.516 921.063C880.629 921.353 872.89 897.034 783.026 816.117C692.036 734.182 679.72 740.865 643.956 702.425C569.917 622.815 444.044 524.595 565.73 367.176C625.432 289.948 762.105 273.591 858.365 311.783C991.082 364.445 991.053 496.165 1113.33 515.85Z" stroke="url(#paint38_linear_169_1020)" stroke-width="2" stroke-miterlimit="10"/>
<path d="M1110.3 517.635C1189 530.303 1224.81 480.402 1297.78 511.926C1301.76 513.655 1391.4 553.983 1394.36 634.828C1396.65 697.703 1345.47 755.638 1292.11 769.163C1215.47 788.572 1180.54 704.705 1107.47 717.721C1005.4 735.895 991.442 914.146 911.469 914.931C882.159 915.221 874.579 891.367 786.491 812.048C697.291 731.711 685.206 738.278 650.15 700.579C577.554 622.523 454.15 526.235 573.454 371.896C631.987 296.179 765.974 280.141 860.343 317.593C990.46 369.223 990.417 498.357 1110.31 517.65L1110.3 517.635Z" stroke="url(#paint39_linear_169_1020)" stroke-width="2" stroke-miterlimit="10"/>
<path d="M1107.34 519.379C1184.5 531.8 1219.6 482.886 1291.14 513.771C1295.05 515.457 1382.92 555 1385.82 634.262C1388.08 695.902 1337.89 752.704 1285.56 765.953C1210.43 784.984 1176.19 702.758 1104.55 715.514C1004.48 733.324 990.792 908.089 912.392 908.859C883.66 909.135 876.224 885.76 789.854 807.981C702.401 729.227 690.547 735.663 656.184 698.705C585.018 622.189 464.025 527.776 580.99 376.473C638.368 302.238 769.742 286.519 862.262 323.23C989.824 373.858 989.796 500.45 1107.32 519.364L1107.34 519.379Z" stroke="url(#paint40_linear_169_1020)" stroke-width="2" stroke-miterlimit="10"/>
<path d="M1104.42 521.079C1180.06 533.253 1214.48 485.298 1284.61 515.588C1288.45 517.244 1374.59 556.003 1377.43 633.71C1379.64 694.144 1330.44 749.828 1279.15 762.83C1205.5 781.497 1171.92 700.87 1101.69 713.378C1003.58 730.84 990.17 902.177 913.301 902.932C885.132 903.208 877.84 880.284 793.174 804.044C707.425 726.831 695.817 733.136 662.118 696.904C592.338 621.885 473.727 529.331 588.396 380.991C644.648 308.223 773.452 292.795 864.153 328.794C989.217 378.42 989.189 502.542 1104.41 521.094L1104.42 521.079Z" stroke="url(#paint41_linear_169_1020)" stroke-width="2" stroke-miterlimit="10"/>
<path d="M1101.58 522.763C1175.75 534.704 1209.47 487.679 1278.24 517.373C1282 519 1366.46 557.004 1369.25 633.186C1371.41 692.428 1323.18 747.022 1272.89 759.763C1200.68 778.053 1167.76 699.024 1098.91 711.285C1002.72 728.413 989.564 896.379 914.211 897.12C886.605 897.396 879.458 874.922 796.438 800.164C712.378 724.461 700.986 730.65 667.951 695.13C599.543 621.578 483.257 530.84 595.673 385.406C650.828 314.062 777.09 298.939 866.016 334.24C988.626 382.893 988.597 504.589 1101.56 522.763L1101.58 522.763Z" stroke="url(#paint42_linear_169_1020)" stroke-width="2" stroke-miterlimit="10"/>
<path d="M1098.78 524.405C1171.49 536.114 1204.57 490.018 1271.98 519.117C1275.66 520.715 1358.46 557.963 1361.21 632.648C1363.33 690.729 1316.04 744.263 1266.74 756.742C1195.95 774.683 1163.68 697.194 1096.16 709.208C1001.87 726.002 988.973 890.67 915.092 891.396C888.02 891.658 881.018 869.634 799.629 796.343C717.215 722.123 706.055 728.195 673.67 693.373C606.604 621.259 492.599 532.308 602.821 389.721C656.892 319.772 780.686 304.954 867.865 339.558C988.063 387.266 988.035 506.565 1098.79 524.39L1098.78 524.405Z" stroke="url(#paint43_linear_169_1020)" stroke-width="2" stroke-miterlimit="10"/>
<path d="M1096.05 526.018C1167.33 537.494 1199.76 492.3 1265.86 520.846C1269.47 522.4 1350.65 558.937 1353.32 632.155C1355.4 689.103 1309.04 741.576 1260.7 753.822C1191.3 771.4 1159.66 695.436 1093.48 707.233C1001.03 723.692 988.381 885.15 915.958 885.847C889.421 886.109 882.548 864.506 802.762 792.654C721.966 719.886 711.021 725.842 679.272 691.703C613.52 621.012 501.753 533.79 609.809 394.007C662.812 325.438 784.18 310.896 869.655 344.817C987.5 391.581 987.471 508.541 1096.06 526.018L1096.05 526.018Z" stroke="url(#paint44_linear_169_1020)" stroke-width="2" stroke-miterlimit="10"/>
<path d="M1093.36 527.588C1163.24 538.832 1195.04 494.524 1259.84 522.518C1263.37 524.043 1342.97 559.853 1345.6 631.648C1347.65 687.477 1302.18 738.918 1254.8 750.933C1186.75 768.177 1155.74 693.694 1090.85 705.244C1000.22 721.384 987.818 879.66 916.811 880.357C890.793 880.604 884.05 859.438 805.824 788.994C726.615 717.665 715.888 723.49 684.759 690.019C620.292 620.709 510.72 535.215 616.653 398.163C668.617 330.93 787.603 316.694 871.403 349.947C986.938 395.795 986.909 510.46 1093.36 527.603L1093.36 527.588Z" stroke="url(#paint45_linear_169_1020)" stroke-width="2" stroke-miterlimit="10"/>
<path d="M1090.72 529.142C1159.23 540.168 1190.4 496.731 1253.93 524.159C1257.41 525.655 1335.44 560.768 1338.01 631.153C1340.01 685.893 1295.44 736.317 1248.98 748.099C1182.26 764.994 1151.85 691.979 1088.24 703.311C999.384 719.131 987.227 874.313 917.605 874.996C892.093 875.243 885.495 854.483 808.798 785.42C731.135 715.485 720.624 721.194 690.101 688.377C626.905 620.432 519.469 536.609 623.339 402.245C674.291 336.334 790.938 322.373 873.092 354.973C986.361 399.92 986.332 512.348 1090.71 529.142L1090.72 529.142Z" stroke="url(#paint46_linear_169_1020)" stroke-width="2" stroke-miterlimit="10"/>
<path d="M1088.14 530.654C1155.3 541.462 1185.87 498.882 1248.14 525.772C1251.55 527.24 1328.04 561.67 1330.57 630.66C1332.53 684.325 1288.84 733.776 1243.29 745.311C1177.88 761.886 1148.07 690.295 1085.71 701.409C998.589 716.924 986.678 869.055 918.428 869.723C893.421 869.97 886.938 849.617 811.758 781.905C735.625 713.336 725.316 718.943 695.385 686.765C633.431 620.142 528.103 537.961 629.922 406.241C679.879 341.623 794.244 327.923 874.781 359.898C985.826 403.974 985.812 514.179 1088.12 530.654L1088.14 530.654Z" stroke="url(#paint47_linear_169_1020)" stroke-width="2" stroke-miterlimit="10"/>
<path d="M1085.61 532.15C1151.46 542.755 1181.42 501.003 1242.48 527.371C1245.82 528.809 1320.82 562.556 1323.29 630.21C1325.21 682.814 1282.39 731.292 1237.73 742.609C1173.61 758.85 1144.39 688.669 1083.24 699.564C997.84 714.774 986.159 863.927 919.238 864.581C894.721 864.813 888.369 844.867 814.661 778.492C740.015 711.273 729.908 716.765 700.57 685.226C639.828 619.91 536.565 539.341 636.392 410.207C685.366 346.853 797.494 333.43 876.457 364.765C985.322 407.97 985.307 516.025 1085.62 532.165L1085.61 532.15Z" stroke="url(#paint48_linear_169_1020)" stroke-width="2" stroke-miterlimit="10"/>
<path d="M1083.12 533.603C1147.69 543.99 1177.06 503.066 1236.92 528.91C1240.2 530.319 1313.72 563.413 1316.14 629.73C1318.03 681.303 1276.03 728.836 1232.26 739.921C1169.39 755.843 1140.73 687.041 1080.8 697.719C997.072 712.624 985.622 858.857 920.015 859.496C895.975 859.728 889.752 840.174 817.488 775.092C744.315 709.195 734.396 714.57 705.635 683.656C646.077 619.634 544.85 540.634 642.713 414.027C690.72 351.923 800.653 338.761 878.071 369.486C984.814 411.848 984.785 517.782 1083.12 533.603Z" stroke="url(#paint49_linear_169_1020)" stroke-width="2" stroke-miterlimit="10"/>
<path d="M1080.7 535.026C1144 545.21 1172.79 505.085 1231.48 530.435C1234.68 531.815 1306.77 564.255 1309.16 629.28C1311 679.85 1269.84 726.439 1226.92 737.32C1165.28 752.937 1137.2 685.486 1078.42 695.946C996.322 710.561 985.104 853.932 920.781 854.556C897.218 854.789 891.111 835.613 820.262 771.808C748.518 707.205 738.801 712.478 710.603 682.16C652.215 619.387 552.966 541.941 648.923 417.819C695.991 356.92 803.759 344.02 879.661 374.15C984.31 415.683 984.281 519.54 1080.7 535.055L1080.7 535.026Z" stroke="url(#paint50_linear_169_1020)" stroke-width="2" stroke-miterlimit="10"/>
<path d="M1078.32 536.435C1140.37 546.43 1168.6 507.075 1226.14 531.931C1229.28 533.297 1299.96 565.098 1302.28 628.829C1304.1 678.397 1263.73 724.086 1221.66 734.749C1161.24 750.061 1133.69 683.932 1076.08 694.188C995.601 708.512 984.599 849.065 921.532 849.69C898.431 849.907 892.454 831.109 822.991 768.568C752.648 705.229 743.133 710.401 715.483 680.678C658.25 619.139 560.936 543.205 655.016 421.523C701.161 361.83 806.82 349.177 881.235 378.711C983.834 419.431 983.805 521.239 1078.33 536.464L1078.32 536.435Z" stroke="url(#paint51_linear_169_1020)" stroke-width="2" stroke-miterlimit="10"/>
<path d="M1075.98 537.816C1136.82 547.608 1164.5 509.038 1220.9 533.4C1223.99 534.737 1293.26 565.912 1295.56 628.409C1297.34 677.004 1257.76 721.792 1216.51 732.251C1157.27 747.258 1130.27 682.422 1073.79 692.49C994.882 706.538 984.097 844.33 922.272 844.94C899.618 845.158 893.756 826.738 825.651 765.403C756.694 703.298 747.352 708.383 720.251 679.241C664.13 618.908 568.736 544.47 660.968 425.156C706.218 366.625 809.798 354.234 882.74 383.172C983.317 423.093 983.303 522.911 1075.97 537.831L1075.98 537.816Z" stroke="url(#paint52_linear_169_1020)" stroke-width="2" stroke-miterlimit="10"/>
<path d="M1073.68 539.151C1133.33 548.753 1160.47 510.939 1215.77 534.822C1218.79 536.129 1286.72 566.695 1288.96 627.957C1290.7 675.607 1251.91 719.509 1211.45 729.765C1153.38 744.481 1126.9 680.909 1071.52 690.773C994.156 704.545 983.587 839.636 922.975 840.231C900.769 840.449 895.023 822.377 828.26 762.248C760.66 701.364 751.491 706.347 724.925 677.771C669.915 618.616 576.384 545.645 666.796 428.67C711.151 371.287 812.71 359.127 884.223 387.514C982.836 426.651 982.807 524.507 1073.67 539.136L1073.68 539.151Z" stroke="url(#paint53_linear_169_1020)" stroke-width="2" stroke-miterlimit="10"/>
<path d="M1071.43 540.474C1129.91 549.888 1156.52 512.814 1210.73 536.232C1213.69 537.51 1280.3 567.48 1282.49 627.551C1284.19 674.271 1246.16 717.316 1206.52 727.354C1149.57 741.78 1123.63 679.457 1069.32 689.133C993.478 702.643 983.112 835.075 923.698 835.656C901.925 835.874 896.294 818.151 830.831 759.213C764.545 699.52 755.579 704.401 729.532 676.392C675.591 618.399 583.908 546.851 672.544 432.186C716.032 375.936 815.599 364.009 885.711 391.844C982.39 430.211 982.361 526.164 1071.45 540.488L1071.43 540.474Z" stroke="url(#paint54_linear_169_1020)" stroke-width="2" stroke-miterlimit="10"/>
<path d="M1069.23 541.766C1126.57 550.991 1152.64 514.644 1205.81 537.597C1208.71 538.846 1274 568.235 1276.16 627.115C1277.84 672.905 1240.55 715.122 1201.68 724.972C1145.86 739.121 1120.4 678.019 1067.18 687.491C992.827 700.725 982.663 830.571 924.419 831.138C903.079 831.341 897.549 813.981 833.371 756.191C768.384 697.675 759.591 702.454 734.05 674.997C681.177 618.137 591.284 547.999 678.188 435.571C720.825 380.425 818.427 368.73 887.168 396.013C981.941 433.624 981.927 527.689 1069.25 541.752L1069.23 541.766Z" stroke="url(#paint55_linear_169_1020)" stroke-width="2" stroke-miterlimit="10"/>
<path d="M1067.07 543.045C1123.28 552.095 1148.85 516.459 1200.96 538.962C1203.8 540.197 1267.82 568.991 1269.93 626.737C1271.57 671.641 1235.02 713.015 1196.9 722.676C1142.18 736.535 1117.23 676.639 1065.03 685.936C992.134 698.909 982.172 826.213 925.054 826.779C904.133 826.983 898.704 809.957 835.796 753.3C772.095 695.931 763.461 700.609 738.425 673.69C686.577 617.948 598.445 549.175 683.646 438.956C725.445 384.885 821.142 373.422 888.54 400.167C981.464 437.038 981.435 529.273 1067.05 543.045L1067.07 543.045Z" stroke="url(#paint56_linear_169_1020)" stroke-width="2" stroke-miterlimit="10"/>
<path d="M1064.95 544.294C1120.06 553.156 1145.12 518.232 1196.21 540.299C1198.99 541.505 1261.76 569.746 1263.82 626.345C1265.44 670.363 1229.59 710.923 1192.22 720.395C1138.57 733.993 1114.11 675.259 1062.94 684.382C991.471 697.108 981.696 821.913 925.719 822.45C905.202 822.654 899.889 805.962 838.208 750.409C775.748 694.159 767.288 698.764 742.743 672.368C691.92 617.715 605.521 550.294 689.047 442.239C730.022 389.228 823.842 377.999 889.912 404.221C981.003 440.379 980.989 530.783 1064.93 544.294L1064.95 544.294Z" stroke="url(#paint57_linear_169_1020)" stroke-width="2" stroke-miterlimit="10"/>
<path d="M1062.87 545.514C1116.9 554.216 1141.47 519.961 1191.56 541.592C1194.3 542.769 1255.82 570.458 1257.86 625.953C1259.43 669.113 1224.3 708.875 1187.66 718.158C1135.06 731.48 1111.08 673.908 1060.92 682.842C990.85 695.321 981.277 817.671 926.383 818.208C906.27 818.397 901.058 802.039 840.591 747.576C779.358 692.43 771.07 696.933 747.002 671.06C697.175 617.483 612.466 551.383 694.36 445.449C734.541 393.47 826.513 382.473 891.298 408.172C980.613 443.619 980.584 532.251 1062.88 545.5L1062.87 545.514Z" stroke="url(#paint58_linear_169_1020)" stroke-width="2" stroke-miterlimit="10"/>
<path d="M1060.83 546.705C1113.79 555.233 1137.89 521.645 1186.99 542.855C1189.68 544.018 1250 571.155 1251.98 625.56C1253.53 667.864 1219.08 706.855 1183.17 715.964C1131.59 729.024 1108.09 672.585 1058.91 681.345C990.229 693.577 980.83 813.53 927.019 814.053C907.296 814.242 902.199 798.204 842.915 744.815C782.881 690.759 774.752 695.175 751.16 669.81C702.301 617.279 619.266 552.487 699.543 448.616C738.931 397.668 829.112 386.874 892.612 412.065C980.166 446.815 980.151 533.718 1060.83 546.705Z" stroke="url(#paint59_linear_169_1020)" stroke-width="2" stroke-miterlimit="10"/>
<path d="M1058.84 547.881C1110.76 556.234 1134.4 523.315 1182.54 544.104C1185.16 545.237 1244.3 571.851 1246.25 625.181C1247.77 666.657 1214 704.893 1178.78 713.813C1128.22 726.626 1105.18 671.291 1056.97 679.877C989.625 691.862 980.414 809.476 927.656 809.985C908.323 810.173 903.313 794.44 845.199 742.098C786.349 689.102 778.379 693.431 755.249 668.56C707.357 617.061 625.939 553.532 704.642 451.71C743.25 401.75 831.671 391.174 893.928 415.885C979.779 449.952 979.75 535.155 1058.86 547.881L1058.84 547.881Z" stroke="url(#paint60_linear_169_1020)" stroke-width="2" stroke-miterlimit="10"/>
<path d="M1056.89 549.031C1107.8 557.224 1130.96 524.944 1178.16 545.326C1180.74 546.445 1238.71 572.521 1240.63 624.82C1242.12 665.482 1209.01 702.963 1174.49 711.709C1124.92 724.26 1102.33 670.015 1055.06 678.426C989.03 690.179 980.006 805.483 928.273 805.991C909.316 806.18 904.407 790.752 847.433 739.441C789.738 687.477 781.912 691.719 759.244 667.342C712.291 616.859 632.462 554.565 709.634 454.748C747.492 405.776 834.165 395.403 895.21 419.62C979.371 453.019 979.356 536.552 1056.9 549.031L1056.89 549.031Z" stroke="url(#paint61_linear_169_1020)" stroke-width="2" stroke-miterlimit="10"/>
<path d="M1054.97 550.149C1104.88 558.183 1127.58 526.542 1173.86 546.517C1176.38 547.607 1233.23 573.19 1235.1 624.457C1236.56 664.32 1204.1 701.074 1170.26 709.646C1121.66 721.95 1099.51 668.765 1053.18 677.017C988.454 688.537 979.603 801.59 928.896 802.083C910.314 802.258 905.506 787.149 849.644 736.841C793.075 685.893 785.408 690.063 763.173 666.15C717.144 616.656 638.874 555.597 714.53 457.711C751.651 409.698 836.621 399.529 896.467 423.281C978.982 456.026 978.953 537.917 1054.99 550.149L1054.97 550.149Z" stroke="url(#paint62_linear_169_1020)" stroke-width="2" stroke-miterlimit="10"/>
<path d="M1053.09 551.268C1102.02 559.142 1124.29 528.126 1169.65 547.709C1172.14 548.784 1227.85 573.858 1229.7 624.123C1231.13 663.216 1199.31 699.23 1166.13 707.641C1118.48 719.713 1096.77 667.575 1051.35 675.652C987.889 686.954 979.212 797.769 929.486 798.263C911.265 798.437 906.558 783.619 851.779 734.299C796.322 684.354 788.814 688.436 767.012 665.003C721.878 616.482 645.153 556.614 719.322 460.661C755.707 413.592 839.016 403.612 897.693 426.899C978.591 459.005 978.562 539.283 1053.11 551.283L1053.09 551.268Z" stroke="url(#paint63_linear_169_1020)" stroke-width="2" stroke-miterlimit="10"/>
<path d="M1051.25 552.343C1099.23 560.057 1121.04 529.651 1165.51 548.856C1167.94 549.902 1222.57 574.483 1224.38 623.76C1225.78 662.083 1194.58 697.399 1162.05 705.636C1115.34 717.476 1094.04 666.354 1049.5 674.286C987.285 685.37 978.781 794.021 930.037 794.486C912.177 794.66 907.557 780.133 853.861 731.771C799.486 682.799 792.123 686.809 770.754 663.826C726.501 616.249 651.292 557.558 724.003 463.493C759.68 417.34 841.357 407.563 898.88 430.4C978.189 461.881 978.175 540.59 1051.25 552.343Z" stroke="url(#paint64_linear_169_1020)" stroke-width="2" stroke-miterlimit="10"/>
<path d="M1049.44 553.404C1096.47 560.973 1117.86 531.162 1161.47 549.99C1163.85 551.021 1217.42 575.122 1219.18 623.426C1220.55 660.994 1189.96 695.613 1158.08 703.705C1112.28 715.312 1091.41 665.192 1047.74 672.965C986.751 683.831 978.405 790.346 930.614 790.811C913.101 790.985 908.567 776.734 855.925 729.331C802.619 681.332 795.4 685.255 774.45 662.723C731.063 616.075 657.327 558.547 728.623 466.312C763.592 421.074 843.667 411.486 900.063 433.858C977.813 464.714 977.799 541.884 1049.44 553.418L1049.44 553.404Z" stroke="url(#paint65_linear_169_1020)" stroke-width="2" stroke-miterlimit="10"/>
<path d="M1047.66 554.449C1093.78 561.872 1114.74 532.643 1157.5 551.093C1159.83 552.096 1212.35 575.732 1214.08 623.091C1215.42 659.918 1185.43 693.869 1154.18 701.786C1109.27 713.161 1088.81 664.029 1046 671.642C986.2 682.29 978.028 786.728 931.176 787.178C914.009 787.352 909.562 773.377 857.959 726.904C805.692 679.835 798.618 683.685 778.087 661.603C735.551 615.871 663.259 559.461 733.155 469.042C767.446 424.69 845.946 415.291 901.231 437.227C977.45 467.473 977.436 543.132 1047.68 554.434L1047.66 554.449Z" stroke="url(#paint66_linear_169_1020)" stroke-width="2" stroke-miterlimit="10"/>
<path d="M1045.93 555.468C1091.14 562.746 1111.7 534.084 1153.61 552.185C1155.91 553.173 1207.38 576.344 1209.09 622.773C1210.41 658.889 1181 692.156 1150.35 699.929C1106.33 711.086 1086.27 662.913 1044.3 670.38C985.682 680.825 977.654 783.2 931.726 783.65C914.891 783.81 910.545 770.125 859.939 724.552C808.697 678.413 801.767 682.176 781.626 660.53C739.928 615.699 669.05 560.393 737.574 471.746C771.187 428.251 848.157 419.041 902.359 440.556C977.091 470.221 977.077 544.383 1045.93 555.468Z" stroke="url(#paint67_linear_169_1020)" stroke-width="2" stroke-miterlimit="10"/>
<path d="M1044.23 556.467C1088.55 563.6 1108.71 535.504 1149.8 553.242C1152.05 554.215 1202.52 576.921 1204.19 622.45C1205.49 657.854 1176.66 690.482 1146.61 698.094C1103.45 709.034 1083.79 661.805 1042.64 669.127C985.161 679.354 977.307 779.739 932.274 780.174C915.771 780.334 911.497 766.911 861.887 722.239C811.656 677.001 804.856 680.705 785.104 659.466C744.229 615.521 674.738 561.29 741.919 474.387C774.882 431.749 850.336 422.713 903.469 443.807C976.729 472.891 976.715 545.6 1044.23 556.467Z" stroke="url(#paint68_linear_169_1020)" stroke-width="2" stroke-miterlimit="10"/>
<path d="M1042.55 557.457C1086 564.444 1105.76 536.9 1146.05 554.304C1148.26 555.248 1197.74 577.519 1199.37 622.147C1200.64 656.853 1172.38 688.842 1142.91 696.31C1100.61 707.031 1081.32 660.732 1040.98 667.908C984.626 677.947 976.916 776.356 932.778 776.777C916.607 776.937 912.42 763.775 863.778 719.975C814.529 675.622 807.858 679.254 788.511 658.437C748.43 615.348 680.31 562.192 746.163 476.989C778.476 435.194 852.444 426.332 904.551 447.005C976.382 475.507 976.368 546.808 1042.55 557.457Z" stroke="url(#paint69_linear_169_1020)" stroke-width="2" stroke-miterlimit="10"/>
<path d="M1040.92 558.416C1083.51 565.273 1102.91 538.266 1142.39 555.321C1144.56 556.251 1193.06 578.086 1194.66 621.842C1195.9 655.866 1168.2 687.23 1139.32 694.552C1097.84 705.055 1078.94 659.672 1039.39 666.703C984.151 676.538 976.585 773.015 933.313 773.436C917.46 773.596 913.345 760.681 865.67 717.752C817.388 674.272 810.848 677.831 791.876 657.42C752.589 615.174 685.798 563.065 750.366 479.532C782.043 438.55 854.567 429.877 905.65 450.143C976.065 478.094 976.051 547.985 1040.94 558.43L1040.92 558.416Z" stroke="url(#paint70_linear_169_1020)" stroke-width="2" stroke-miterlimit="10"/>
<defs>
<linearGradient id="paint0_linear_169_1020" x1="898.186" y1="840.182" x2="-500.181" y2="-261.877" gradientUnits="userSpaceOnUse">
<stop offset="0.02" stop-color="#51B2AE" stop-opacity="0.31"/>
<stop offset="1" stop-color="#ECECEC" stop-opacity="0"/>
</linearGradient>
<linearGradient id="paint1_linear_169_1020" x1="899.386" y1="835.598" x2="-471.566" y2="-244.838" gradientUnits="userSpaceOnUse">
<stop offset="0.02" stop-color="#51B2AE" stop-opacity="0.31"/>
<stop offset="1" stop-color="#ECECEC" stop-opacity="0"/>
</linearGradient>
<linearGradient id="paint2_linear_169_1020" x1="900.568" y1="831.098" x2="-443.497" y2="-228.152" gradientUnits="userSpaceOnUse">
<stop offset="0.02" stop-color="#51B2AE" stop-opacity="0.31"/>
<stop offset="1" stop-color="#ECECEC" stop-opacity="0"/>
</linearGradient>
<linearGradient id="paint3_linear_169_1020" x1="901.705" y1="826.695" x2="-416.009" y2="-211.796" gradientUnits="userSpaceOnUse">
<stop offset="0.02" stop-color="#51B2AE" stop-opacity="0.31"/>
<stop offset="1" stop-color="#ECECEC" stop-opacity="0"/>
</linearGradient>
<linearGradient id="paint4_linear_169_1020" x1="902.824" y1="822.373" x2="-389.067" y2="-195.758" gradientUnits="userSpaceOnUse">
<stop offset="0.02" stop-color="#51B2AE" stop-opacity="0.31"/>
<stop offset="1" stop-color="#ECECEC" stop-opacity="0"/>
</linearGradient>
<linearGradient id="paint5_linear_169_1020" x1="903.921" y1="818.179" x2="-362.627" y2="-179.986" gradientUnits="userSpaceOnUse">
<stop offset="0.02" stop-color="#51B2AE" stop-opacity="0.31"/>
<stop offset="1" stop-color="#ECECEC" stop-opacity="0"/>
</linearGradient>
<linearGradient id="paint6_linear_169_1020" x1="904.999" y1="814" x2="-336.726" y2="-164.598" gradientUnits="userSpaceOnUse">
<stop offset="0.02" stop-color="#51B2AE" stop-opacity="0.31"/>
<stop offset="1" stop-color="#ECECEC" stop-opacity="0"/>
</linearGradient>
<linearGradient id="paint7_linear_169_1020" x1="906.073" y1="809.935" x2="-311.288" y2="-149.462" gradientUnits="userSpaceOnUse">
<stop offset="0.02" stop-color="#51B2AE" stop-opacity="0.31"/>
<stop offset="1" stop-color="#ECECEC" stop-opacity="0"/>
</linearGradient>
<linearGradient id="paint8_linear_169_1020" x1="907.095" y1="805.953" x2="-286.397" y2="-134.641" gradientUnits="userSpaceOnUse">
<stop offset="0.02" stop-color="#51B2AE" stop-opacity="0.31"/>
<stop offset="1" stop-color="#ECECEC" stop-opacity="0"/>
</linearGradient>
<linearGradient id="paint9_linear_169_1020" x1="908.125" y1="802.044" x2="-261.968" y2="-120.111" gradientUnits="userSpaceOnUse">
<stop offset="0.02" stop-color="#51B2AE" stop-opacity="0.31"/>
<stop offset="1" stop-color="#ECECEC" stop-opacity="0"/>
</linearGradient>
<linearGradient id="paint10_linear_169_1020" x1="909.138" y1="798.193" x2="-238.008" y2="-105.877" gradientUnits="userSpaceOnUse">
<stop offset="0.02" stop-color="#51B2AE" stop-opacity="0.31"/>
<stop offset="1" stop-color="#ECECEC" stop-opacity="0"/>
</linearGradient>
<linearGradient id="paint11_linear_169_1020" x1="910.095" y1="794.434" x2="-214.567" y2="-91.9153" gradientUnits="userSpaceOnUse">
<stop offset="0.02" stop-color="#51B2AE" stop-opacity="0.31"/>
<stop offset="1" stop-color="#ECECEC" stop-opacity="0"/>
</linearGradient>
<linearGradient id="paint12_linear_169_1020" x1="911.047" y1="790.773" x2="-191.566" y2="-78.1946" gradientUnits="userSpaceOnUse">
<stop offset="0.02" stop-color="#51B2AE" stop-opacity="0.31"/>
<stop offset="1" stop-color="#ECECEC" stop-opacity="0"/>
</linearGradient>
<linearGradient id="paint13_linear_169_1020" x1="912.002" y1="787.139" x2="-168.986" y2="-64.7888" gradientUnits="userSpaceOnUse">
<stop offset="0.02" stop-color="#51B2AE" stop-opacity="0.31"/>
<stop offset="1" stop-color="#ECECEC" stop-opacity="0"/>
</linearGradient>
<linearGradient id="paint14_linear_169_1020" x1="912.917" y1="783.586" x2="-146.889" y2="-51.6516" gradientUnits="userSpaceOnUse">
<stop offset="0.02" stop-color="#51B2AE" stop-opacity="0.31"/>
<stop offset="1" stop-color="#ECECEC" stop-opacity="0"/>
</linearGradient>
<linearGradient id="paint15_linear_169_1020" x1="913.836" y1="780.13" x2="-125.178" y2="-38.7092" gradientUnits="userSpaceOnUse">
<stop offset="0.02" stop-color="#51B2AE" stop-opacity="0.31"/>
<stop offset="1" stop-color="#ECECEC" stop-opacity="0"/>
</linearGradient>
<linearGradient id="paint16_linear_169_1020" x1="914.723" y1="776.732" x2="-103.914" y2="-26.0466" gradientUnits="userSpaceOnUse">
<stop offset="0.02" stop-color="#51B2AE" stop-opacity="0.31"/>
<stop offset="1" stop-color="#ECECEC" stop-opacity="0"/>
</linearGradient>
<linearGradient id="paint17_linear_169_1020" x1="915.589" y1="773.387" x2="-83.0721" y2="-13.6603" gradientUnits="userSpaceOnUse">
<stop offset="0.02" stop-color="#51B2AE" stop-opacity="0.31"/>
<stop offset="1" stop-color="#ECECEC" stop-opacity="0"/>
</linearGradient>
<linearGradient id="paint18_linear_169_1020" x1="916.422" y1="770.136" x2="-62.6644" y2="-1.48657" gradientUnits="userSpaceOnUse">
<stop offset="0.02" stop-color="#51B2AE" stop-opacity="0.31"/>
<stop offset="1" stop-color="#ECECEC" stop-opacity="0"/>
</linearGradient>
<linearGradient id="paint19_linear_169_1020" x1="917.267" y1="766.914" x2="-42.6113" y2="10.4368" gradientUnits="userSpaceOnUse">
<stop offset="0.02" stop-color="#51B2AE" stop-opacity="0.31"/>
<stop offset="1" stop-color="#ECECEC" stop-opacity="0"/>
</linearGradient>
<linearGradient id="paint20_linear_169_1020" x1="918.1" y1="763.754" x2="-22.9785" y2="22.103" gradientUnits="userSpaceOnUse">
<stop offset="0.02" stop-color="#51B2AE" stop-opacity="0.31"/>
<stop offset="1" stop-color="#ECECEC" stop-opacity="0"/>
</linearGradient>
<linearGradient id="paint21_linear_169_1020" x1="918.906" y1="760.666" x2="-3.70279" y2="33.5695" gradientUnits="userSpaceOnUse">
<stop offset="0.02" stop-color="#51B2AE" stop-opacity="0.31"/>
<stop offset="1" stop-color="#ECECEC" stop-opacity="0"/>
</linearGradient>
<linearGradient id="paint22_linear_169_1020" x1="919.67" y1="757.647" x2="15.1407" y2="44.795" gradientUnits="userSpaceOnUse">
<stop offset="0.02" stop-color="#51B2AE" stop-opacity="0.31"/>
<stop offset="1" stop-color="#ECECEC" stop-opacity="0"/>
</linearGradient>
<linearGradient id="paint23_linear_169_1020" x1="920.454" y1="754.696" x2="33.6607" y2="55.8203" gradientUnits="userSpaceOnUse">
<stop offset="0.02" stop-color="#51B2AE" stop-opacity="0.31"/>
<stop offset="1" stop-color="#ECECEC" stop-opacity="0"/>
</linearGradient>
<linearGradient id="paint24_linear_169_1020" x1="921.194" y1="751.799" x2="51.7993" y2="66.628" gradientUnits="userSpaceOnUse">
<stop offset="0.02" stop-color="#51B2AE" stop-opacity="0.31"/>
<stop offset="1" stop-color="#ECECEC" stop-opacity="0"/>
</linearGradient>
<linearGradient id="paint25_linear_169_1020" x1="921.952" y1="748.951" x2="69.5949" y2="77.2139" gradientUnits="userSpaceOnUse">
<stop offset="0.02" stop-color="#51B2AE" stop-opacity="0.31"/>
<stop offset="1" stop-color="#ECECEC" stop-opacity="0"/>
</linearGradient>
<linearGradient id="paint26_linear_169_1020" x1="922.688" y1="746.136" x2="87.0609" y2="87.573" gradientUnits="userSpaceOnUse">
<stop offset="0.02" stop-color="#51B2AE" stop-opacity="0.31"/>
<stop offset="1" stop-color="#ECECEC" stop-opacity="0"/>
</linearGradient>
<linearGradient id="paint27_linear_169_1020" x1="923.401" y1="743.418" x2="104.154" y2="97.7762" gradientUnits="userSpaceOnUse">
<stop offset="0.02" stop-color="#51B2AE" stop-opacity="0.31"/>
<stop offset="1" stop-color="#ECECEC" stop-opacity="0"/>
</linearGradient>
<linearGradient id="paint28_linear_169_1020" x1="924.108" y1="740.715" x2="120.918" y2="107.727" gradientUnits="userSpaceOnUse">
<stop offset="0.02" stop-color="#51B2AE" stop-opacity="0.31"/>
<stop offset="1" stop-color="#ECECEC" stop-opacity="0"/>
</linearGradient>
<linearGradient id="paint29_linear_169_1020" x1="924.777" y1="738.108" x2="137.343" y2="117.53" gradientUnits="userSpaceOnUse">
<stop offset="0.02" stop-color="#51B2AE" stop-opacity="0.31"/>
<stop offset="1" stop-color="#ECECEC" stop-opacity="0"/>
</linearGradient>
<linearGradient id="paint30_linear_169_1020" x1="925.452" y1="735.532" x2="153.452" y2="127.114" gradientUnits="userSpaceOnUse">
<stop offset="0.02" stop-color="#51B2AE" stop-opacity="0.31"/>
<stop offset="1" stop-color="#ECECEC" stop-opacity="0"/>
</linearGradient>
<linearGradient id="paint31_linear_169_1020" x1="926.098" y1="732.996" x2="169.239" y2="136.518" gradientUnits="userSpaceOnUse">
<stop offset="0.02" stop-color="#51B2AE" stop-opacity="0.31"/>
<stop offset="1" stop-color="#ECECEC" stop-opacity="0"/>
</linearGradient>
<linearGradient id="paint32_linear_169_1020" x1="926.768" y1="730.492" x2="184.738" y2="145.712" gradientUnits="userSpaceOnUse">
<stop offset="0.02" stop-color="#51B2AE" stop-opacity="0.31"/>
<stop offset="1" stop-color="#ECECEC" stop-opacity="0"/>
</linearGradient>
<linearGradient id="paint33_linear_169_1020" x1="927.402" y1="728.078" x2="199.923" y2="154.767" gradientUnits="userSpaceOnUse">
<stop offset="0.02" stop-color="#51B2AE" stop-opacity="0.31"/>
<stop offset="1" stop-color="#ECECEC" stop-opacity="0"/>
</linearGradient>
<linearGradient id="paint34_linear_169_1020" x1="928.007" y1="725.71" x2="214.8" y2="163.621" gradientUnits="userSpaceOnUse">
<stop offset="0.02" stop-color="#51B2AE" stop-opacity="0.31"/>
<stop offset="1" stop-color="#ECECEC" stop-opacity="0"/>
</linearGradient>
<linearGradient id="paint35_linear_169_1020" x1="928.613" y1="723.363" x2="229.385" y2="172.299" gradientUnits="userSpaceOnUse">
<stop offset="0.02" stop-color="#51B2AE" stop-opacity="0.31"/>
<stop offset="1" stop-color="#ECECEC" stop-opacity="0"/>
</linearGradient>
<linearGradient id="paint36_linear_169_1020" x1="929.19" y1="721.067" x2="243.677" y2="180.806" gradientUnits="userSpaceOnUse">
<stop offset="0.02" stop-color="#51B2AE" stop-opacity="0.31"/>
<stop offset="1" stop-color="#ECECEC" stop-opacity="0"/>
</linearGradient>
<linearGradient id="paint37_linear_169_1020" x1="929.788" y1="718.809" x2="257.702" y2="189.151" gradientUnits="userSpaceOnUse">
<stop offset="0.02" stop-color="#51B2AE" stop-opacity="0.31"/>
<stop offset="1" stop-color="#ECECEC" stop-opacity="0"/>
</linearGradient>
<linearGradient id="paint38_linear_169_1020" x1="930.375" y1="716.616" x2="271.482" y2="197.338" gradientUnits="userSpaceOnUse">
<stop offset="0.02" stop-color="#51B2AE" stop-opacity="0.31"/>
<stop offset="1" stop-color="#ECECEC" stop-opacity="0"/>
</linearGradient>
<linearGradient id="paint39_linear_169_1020" x1="930.941" y1="714.49" x2="284.961" y2="205.403" gradientUnits="userSpaceOnUse">
<stop offset="0.02" stop-color="#51B2AE" stop-opacity="0.31"/>
<stop offset="1" stop-color="#ECECEC" stop-opacity="0"/>
</linearGradient>
<linearGradient id="paint40_linear_169_1020" x1="931.481" y1="712.348" x2="298.163" y2="213.225" gradientUnits="userSpaceOnUse">
<stop offset="0.02" stop-color="#51B2AE" stop-opacity="0.31"/>
<stop offset="1" stop-color="#ECECEC" stop-opacity="0"/>
</linearGradient>
<linearGradient id="paint41_linear_169_1020" x1="932.008" y1="710.277" x2="311.116" y2="220.95" gradientUnits="userSpaceOnUse">
<stop offset="0.02" stop-color="#51B2AE" stop-opacity="0.31"/>
<stop offset="1" stop-color="#ECECEC" stop-opacity="0"/>
</linearGradient>
<linearGradient id="paint42_linear_169_1020" x1="932.553" y1="708.24" x2="323.83" y2="228.505" gradientUnits="userSpaceOnUse">
<stop offset="0.02" stop-color="#51B2AE" stop-opacity="0.31"/>
<stop offset="1" stop-color="#ECECEC" stop-opacity="0"/>
</linearGradient>
<linearGradient id="paint43_linear_169_1020" x1="933.082" y1="706.222" x2="336.301" y2="235.902" gradientUnits="userSpaceOnUse">
<stop offset="0.02" stop-color="#51B2AE" stop-opacity="0.31"/>
<stop offset="1" stop-color="#ECECEC" stop-opacity="0"/>
</linearGradient>
<linearGradient id="paint44_linear_169_1020" x1="933.595" y1="704.302" x2="348.512" y2="243.208" gradientUnits="userSpaceOnUse">
<stop offset="0.02" stop-color="#51B2AE" stop-opacity="0.31"/>
<stop offset="1" stop-color="#ECECEC" stop-opacity="0"/>
</linearGradient>
<linearGradient id="paint45_linear_169_1020" x1="934.096" y1="702.374" x2="360.491" y2="250.313" gradientUnits="userSpaceOnUse">
<stop offset="0.02" stop-color="#51B2AE" stop-opacity="0.31"/>
<stop offset="1" stop-color="#ECECEC" stop-opacity="0"/>
</linearGradient>
<linearGradient id="paint46_linear_169_1020" x1="934.56" y1="700.499" x2="372.19" y2="257.291" gradientUnits="userSpaceOnUse">
<stop offset="0.02" stop-color="#51B2AE" stop-opacity="0.31"/>
<stop offset="1" stop-color="#ECECEC" stop-opacity="0"/>
</linearGradient>
<linearGradient id="paint47_linear_169_1020" x1="935.043" y1="698.646" x2="383.698" y2="264.14" gradientUnits="userSpaceOnUse">
<stop offset="0.02" stop-color="#51B2AE" stop-opacity="0.31"/>
<stop offset="1" stop-color="#ECECEC" stop-opacity="0"/>
</linearGradient>
<linearGradient id="paint48_linear_169_1020" x1="935.525" y1="696.865" x2="395.007" y2="270.878" gradientUnits="userSpaceOnUse">
<stop offset="0.02" stop-color="#51B2AE" stop-opacity="0.31"/>
<stop offset="1" stop-color="#ECECEC" stop-opacity="0"/>
</linearGradient>
<linearGradient id="paint49_linear_169_1020" x1="935.981" y1="695.069" x2="406.065" y2="277.437" gradientUnits="userSpaceOnUse">
<stop offset="0.02" stop-color="#51B2AE" stop-opacity="0.31"/>
<stop offset="1" stop-color="#ECECEC" stop-opacity="0"/>
</linearGradient>
<linearGradient id="paint50_linear_169_1020" x1="936.44" y1="693.351" x2="416.903" y2="283.899" gradientUnits="userSpaceOnUse">
<stop offset="0.02" stop-color="#51B2AE" stop-opacity="0.31"/>
<stop offset="1" stop-color="#ECECEC" stop-opacity="0"/>
</linearGradient>
<linearGradient id="paint51_linear_169_1020" x1="936.887" y1="691.649" x2="427.55" y2="290.236" gradientUnits="userSpaceOnUse">
<stop offset="0.02" stop-color="#51B2AE" stop-opacity="0.31"/>
<stop offset="1" stop-color="#ECECEC" stop-opacity="0"/>
</linearGradient>
<linearGradient id="paint52_linear_169_1020" x1="937.318" y1="689.993" x2="437.954" y2="296.444" gradientUnits="userSpaceOnUse">
<stop offset="0.02" stop-color="#51B2AE" stop-opacity="0.31"/>
<stop offset="1" stop-color="#ECECEC" stop-opacity="0"/>
</linearGradient>
<linearGradient id="paint53_linear_169_1020" x1="937.738" y1="688.319" x2="448.155" y2="302.486" gradientUnits="userSpaceOnUse">
<stop offset="0.02" stop-color="#51B2AE" stop-opacity="0.31"/>
<stop offset="1" stop-color="#ECECEC" stop-opacity="0"/>
</linearGradient>
<linearGradient id="paint54_linear_169_1020" x1="938.165" y1="686.731" x2="458.206" y2="308.47" gradientUnits="userSpaceOnUse">
<stop offset="0.02" stop-color="#51B2AE" stop-opacity="0.31"/>
<stop offset="1" stop-color="#ECECEC" stop-opacity="0"/>
</linearGradient>
<linearGradient id="paint55_linear_169_1020" x1="938.596" y1="685.129" x2="468.04" y2="314.292" gradientUnits="userSpaceOnUse">
<stop offset="0.02" stop-color="#51B2AE" stop-opacity="0.31"/>
<stop offset="1" stop-color="#ECECEC" stop-opacity="0"/>
</linearGradient>
<linearGradient id="paint56_linear_169_1020" x1="938.962" y1="683.628" x2="477.613" y2="320.044" gradientUnits="userSpaceOnUse">
<stop offset="0.02" stop-color="#51B2AE" stop-opacity="0.31"/>
<stop offset="1" stop-color="#ECECEC" stop-opacity="0"/>
</linearGradient>
<linearGradient id="paint57_linear_169_1020" x1="939.352" y1="682.11" x2="487.063" y2="325.662" gradientUnits="userSpaceOnUse">
<stop offset="0.02" stop-color="#51B2AE" stop-opacity="0.31"/>
<stop offset="1" stop-color="#ECECEC" stop-opacity="0"/>
</linearGradient>
<linearGradient id="paint58_linear_169_1020" x1="939.752" y1="680.619" x2="496.33" y2="331.163" gradientUnits="userSpaceOnUse">
<stop offset="0.02" stop-color="#51B2AE" stop-opacity="0.31"/>
<stop offset="1" stop-color="#ECECEC" stop-opacity="0"/>
</linearGradient>
<linearGradient id="paint59_linear_169_1020" x1="940.121" y1="679.166" x2="505.408" y2="336.571" gradientUnits="userSpaceOnUse">
<stop offset="0.02" stop-color="#51B2AE" stop-opacity="0.31"/>
<stop offset="1" stop-color="#ECECEC" stop-opacity="0"/>
</linearGradient>
<linearGradient id="paint60_linear_169_1020" x1="940.506" y1="677.741" x2="514.312" y2="341.863" gradientUnits="userSpaceOnUse">
<stop offset="0.02" stop-color="#51B2AE" stop-opacity="0.31"/>
<stop offset="1" stop-color="#ECECEC" stop-opacity="0"/>
</linearGradient>
<linearGradient id="paint61_linear_169_1020" x1="940.873" y1="676.343" x2="523.04" y2="347.04" gradientUnits="userSpaceOnUse">
<stop offset="0.02" stop-color="#51B2AE" stop-opacity="0.31"/>
<stop offset="1" stop-color="#ECECEC" stop-opacity="0"/>
</linearGradient>
<linearGradient id="paint62_linear_169_1020" x1="941.231" y1="674.973" x2="531.582" y2="352.14" gradientUnits="userSpaceOnUse">
<stop offset="0.02" stop-color="#51B2AE" stop-opacity="0.31"/>
<stop offset="1" stop-color="#ECECEC" stop-opacity="0"/>
</linearGradient>
<linearGradient id="paint63_linear_169_1020" x1="941.585" y1="673.649" x2="539.976" y2="357.134" gradientUnits="userSpaceOnUse">
<stop offset="0.02" stop-color="#51B2AE" stop-opacity="0.31"/>
<stop offset="1" stop-color="#ECECEC" stop-opacity="0"/>
</linearGradient>
<linearGradient id="paint64_linear_169_1020" x1="941.908" y1="672.312" x2="548.166" y2="362.004" gradientUnits="userSpaceOnUse">
<stop offset="0.02" stop-color="#51B2AE" stop-opacity="0.31"/>
<stop offset="1" stop-color="#ECECEC" stop-opacity="0"/>
</linearGradient>
<linearGradient id="paint65_linear_169_1020" x1="942.248" y1="671.035" x2="556.232" y2="366.81" gradientUnits="userSpaceOnUse">
<stop offset="0.02" stop-color="#51B2AE" stop-opacity="0.31"/>
<stop offset="1" stop-color="#ECECEC" stop-opacity="0"/>
</linearGradient>
<linearGradient id="paint66_linear_169_1020" x1="942.587" y1="669.751" x2="564.143" y2="371.502" gradientUnits="userSpaceOnUse">
<stop offset="0.02" stop-color="#51B2AE" stop-opacity="0.31"/>
<stop offset="1" stop-color="#ECECEC" stop-opacity="0"/>
</linearGradient>
<linearGradient id="paint67_linear_169_1020" x1="942.909" y1="668.521" x2="571.873" y2="376.111" gradientUnits="userSpaceOnUse">
<stop offset="0.02" stop-color="#51B2AE" stop-opacity="0.31"/>
<stop offset="1" stop-color="#ECECEC" stop-opacity="0"/>
</linearGradient>
<linearGradient id="paint68_linear_169_1020" x1="943.23" y1="667.303" x2="579.468" y2="380.623" gradientUnits="userSpaceOnUse">
<stop offset="0.02" stop-color="#51B2AE" stop-opacity="0.31"/>
<stop offset="1" stop-color="#ECECEC" stop-opacity="0"/>
</linearGradient>
<linearGradient id="paint69_linear_169_1020" x1="943.528" y1="666.121" x2="586.905" y2="385.067" gradientUnits="userSpaceOnUse">
<stop offset="0.02" stop-color="#51B2AE" stop-opacity="0.31"/>
<stop offset="1" stop-color="#ECECEC" stop-opacity="0"/>
</linearGradient>
<linearGradient id="paint70_linear_169_1020" x1="943.849" y1="664.953" x2="594.23" y2="389.422" gradientUnits="userSpaceOnUse">
<stop offset="0.02" stop-color="#51B2AE" stop-opacity="0.31"/>
<stop offset="1" stop-color="#ECECEC" stop-opacity="0"/>
</linearGradient>
</defs>
</svg>
