<svg width="25" height="20" viewBox="0 0 25 20" fill="none" xmlns="http://www.w3.org/2000/svg">
<path d="M22.033 5.11175C22.0482 5.32494 22.0482 5.53817 22.0482 5.75136C22.0482 12.2539 17.099 19.7463 8.0533 19.7463C5.26648 19.7463 2.67767 18.9391 0.5 17.5382C0.895953 17.5838 1.27662 17.5991 1.68781 17.5991C3.98727 17.5991 6.10405 16.8224 7.79441 15.4976C5.63197 15.4519 3.81978 14.0356 3.19541 12.0864C3.5 12.132 3.80455 12.1625 4.12437 12.1625C4.56598 12.1625 5.00764 12.1016 5.41878 11.995C3.16498 11.5381 1.47458 9.55845 1.47458 7.16759V7.1067C2.12937 7.47219 2.89086 7.70061 3.69791 7.73103C2.37303 6.84777 1.50505 5.34017 1.50505 3.63458C1.50505 2.72089 1.74866 1.88333 2.17508 1.15236C4.59641 4.13713 8.23602 6.08633 12.3172 6.29956C12.2411 5.93408 12.1954 5.55341 12.1954 5.17269C12.1954 2.462 14.3883 0.253906 17.1141 0.253906C18.5304 0.253906 19.8095 0.847813 20.708 1.8072C21.8197 1.59402 22.8857 1.18283 23.8299 0.619391C23.4643 1.76155 22.6877 2.72094 21.6674 3.33003C22.6573 3.22348 23.6167 2.94931 24.4999 2.56864C23.83 3.54322 22.9924 4.4112 22.033 5.11175Z" fill="#010101"/>
</svg>
